# xmcd CD database file
#
# Track frame offsets:
#	150
#	14484
#	29461
#	44439
#	59043
#	73683
#	86961
#	98354
#	110504
#	125574
#	138062
#	150701
#	164944
#	176568
#	189994
#	204626
#
# Disc length: 2887 seconds
#
# Revision: 1
# Processed by: cddbd v1.4PL0 Copyright (c) Steve Scherf et al.
# Submitted via: CDex 1.50beta10
#
DISCID=e80b4510
DTITLE=Ella Fitzgerald - Selection CD1/2
DYEAR=1999
DGENRE=Jazz
TTITLE0=Oh, Lady Be Good
TTITLE1=Sentimental Journey
TTITLE2=How High The Moon
TTITLE3=Guilty
TTITLE4=The Frim Fram Sauce
TTITLE5=I'm Just A Lucky So And So
TTITLE6=Petootie Pie
TTITLE7=It's A Pity To Say Goodnight
TTITLE8=I Didn't Mean A Word I Said
TTITLE9=I'm Beginning To See The Light
TTITLE10=Cry You Out Of My Heart
TTITLE11=A Kiss Goodnight
TTITLE12=I Can't Believe That You're In Love With Me
TTITLE13=I Got It Bad (And That Ain't Good)
TTITLE14=I Feel In Love With A Dream
TTITLE15=When My Sugar Walks Down The Street
EXTD=YEAR: 1999
EXTT0=
EXTT1=
EXTT2=
EXTT3=
EXTT4=
EXTT5=
EXTT6=
EXTT7=
EXTT8=
EXTT9=
EXTT10=
EXTT11=
EXTT12=
EXTT13=
EXTT14=
EXTT15=
PLAYORDER=
